<?xml version="1.0" encoding="UTF-8"?>
<svg xmlns="http://www.w3.org/2000/svg" xmlns:xlink="http://www.w3.org/1999/xlink" width="40px" height="42px" viewBox="0 0 40 41" version="1.1">
<g id="surface1">
<path style=" stroke:none;fill-rule:nonzero;fill:rgb(15.686275%,71.764706%,41.960784%);fill-opacity:1;" d="M 21.265625 29.410156 C 15.984375 29.410156 11.703125 25.214844 11.703125 20.035156 C 11.703125 15.871094 14.472656 12.339844 18.304688 11.117188 L 16.691406 5.246094 C 15.570312 5.578125 14.488281 6.035156 13.472656 6.601562 L 12.363281 5.519531 L 9.445312 4.738281 L 5.640625 8.46875 L 6.453125 11.347656 L 7.550781 12.421875 C 6.898438 13.542969 6.398438 14.738281 6.054688 15.984375 L 4.472656 15.984375 L 1.816406 17.449219 L 1.816406 22.722656 L 4.5 24.183594 L 6.082031 24.183594 C 6.429688 25.417969 6.9375 26.601562 7.585938 27.710938 L 6.433594 28.839844 L 5.640625 31.699219 L 9.445312 35.429688 L 12.382812 34.632812 L 13.535156 33.5 C 14.667969 34.128906 15.875 34.613281 17.128906 34.945312 L 17.128906 36.574219 L 18.601562 39.195312 L 23.980469 39.195312 L 25.359375 36.78125 L 23.277344 29.203125 C 22.617188 29.339844 21.941406 29.410156 21.265625 29.410156 Z M 33.988281 20.035156 C 33.988281 16.246094 32.078125 12.707031 28.875 10.574219 C 28.414062 10.277344 27.796875 10.398438 27.488281 10.847656 C 27.179688 11.292969 27.289062 11.898438 27.738281 12.210938 C 30.386719 13.976562 31.964844 16.902344 31.964844 20.035156 C 31.964844 23.867188 29.636719 27.292969 26.027344 28.765625 C 25.511719 28.976562 25.269531 29.558594 25.484375 30.0625 C 25.699219 30.566406 26.289062 30.804688 26.804688 30.59375 C 31.167969 28.8125 33.988281 24.667969 33.988281 20.035156 Z M 33.988281 20.035156 "/>
<path style=" stroke:none;fill-rule:nonzero;fill:rgb(15.686275%,71.764706%,41.960784%);fill-opacity:1;" d="M 24.375 4.378906 L 25.519531 3.613281 C 25.980469 3.304688 26.097656 2.6875 25.785156 2.238281 C 25.46875 1.785156 24.84375 1.667969 24.382812 1.976562 L 21.210938 4.097656 C 20.75 4.40625 20.632812 5.019531 20.945312 5.472656 L 23.0625 8.515625 C 23.25 8.789062 23.566406 8.949219 23.898438 8.949219 C 24.273438 8.949219 24.617188 8.746094 24.792969 8.421875 C 24.964844 8.097656 24.945312 7.703125 24.734375 7.402344 L 23.984375 6.324219 C 30.941406 7.261719 36.160156 13.113281 36.160156 20.035156 C 36.160156 25.410156 32.945312 30.34375 27.964844 32.605469 C 27.535156 32.800781 27.300781 33.261719 27.402344 33.714844 C 27.507812 34.171875 27.917969 34.492188 28.390625 34.492188 C 28.53125 34.492188 28.675781 34.464844 28.8125 34.402344 C 31.570312 33.152344 33.90625 31.167969 35.570312 28.664062 C 37.277344 26.097656 38.183594 23.113281 38.183594 20.035156 C 38.183594 12.164062 32.269531 5.5 24.375 4.378906 Z M 24.375 4.378906 "/>
<path style=" stroke:none;fill-rule:nonzero;fill:rgb(15.686275%,71.764706%,41.960784%);fill-opacity:1;" d="M 21.265625 26.109375 C 24.6875 26.109375 27.464844 23.390625 27.464844 20.035156 C 27.464844 16.679688 24.6875 13.957031 21.265625 13.957031 C 17.84375 13.957031 15.070312 16.679688 15.070312 20.035156 C 15.070312 23.390625 17.84375 26.109375 21.265625 26.109375 Z M 21.265625 17.261719 C 22.828125 17.261719 24.097656 18.503906 24.097656 20.035156 C 24.097656 21.566406 22.828125 22.808594 21.265625 22.808594 C 19.703125 22.808594 18.4375 21.566406 18.4375 20.035156 C 18.4375 18.503906 19.703125 17.261719 21.265625 17.261719 Z M 21.265625 17.261719 "/>
</g>
</svg>
